<?xml version="1.0" encoding="utf-8"?>
<!-- Generator: Adobe Illustrator 16.0.0, SVG Export Plug-In . SVG Version: 6.00 Build 0)  -->
<!DOCTYPE svg PUBLIC "-//W3C//DTD SVG 1.1//EN" "http://www.w3.org/Graphics/SVG/1.1/DTD/svg11.dtd">
<svg version="1.1" id="Ebene_1" xmlns="http://www.w3.org/2000/svg" xmlns:xlink="http://www.w3.org/1999/xlink" x="0px" y="0px"
	 width="512px" height="512px" viewBox="0 0 512 512" enable-background="new 0 0 512 512" xml:space="preserve">
<path id="home-3-icon" fill="#494949" d="M118.032,279.715l30.494,161.153h217.371l30.494-162.113L257.212,158.18L118.032,279.715z
	 M256.218,401.649c-10.157,0-18.392-8.234-18.392-18.394s8.234-18.394,18.392-18.394c10.159,0,18.395,8.232,18.395,18.394
	C274.611,393.415,266.377,401.649,256.218,401.649z M304.502,292.675c0,26.667-21.617,48.284-48.284,48.284
	c-26.666,0-48.283-21.617-48.283-48.284c0-26.666,21.617-48.283,48.283-48.283C282.885,244.392,304.502,266.009,304.502,292.675z
	 M462,256.001l-27.148,27.149L257.18,125.366L77.084,283.213L50,256L257.244,71.132L462,256.001z"/>
</svg>
