<?xml version="1.0" encoding="utf-8"?>
<!-- Generator: Adobe Illustrator 16.0.0, SVG Export Plug-In . SVG Version: 6.00 Build 0)  -->
<!DOCTYPE svg PUBLIC "-//W3C//DTD SVG 1.1//EN" "http://www.w3.org/Graphics/SVG/1.1/DTD/svg11.dtd">
<svg version="1.1" xmlns="http://www.w3.org/2000/svg" xmlns:xlink="http://www.w3.org/1999/xlink" x="0px" y="0px" width="1400px"
	 height="20px" viewBox="0 0 1400 20" enable-background="new 0 0 1400 20" xml:space="preserve">
<g id="Ebene_2" display="none">
	<rect display="inline" width="1400" height="20"/>
</g>
<g id="Ebene_1">
	<g>
		<path d="M672.997,12.644c0,0,0.775-0.395,2.148-1.039c0.688-0.318,1.518-0.717,2.483-1.137c0.979-0.405,2.059-0.917,3.305-1.337
			c1.224-0.475,2.599-0.892,4.079-1.27c0.754-0.152,1.528-0.309,2.319-0.469c0.804-0.114,1.637-0.164,2.481-0.246
			c0.847-0.047,1.715,0.005,2.593,0.007l0.331,0.005c0.077,0.004,0.061-0.005,0.215,0.01l0.156,0.017l0.625,0.069
			c0.417,0.053,0.835,0.107,1.255,0.161c1.679,0.209,3.387,0.445,5.1,0.726c0.843,0.146,1.686,0.292,2.525,0.437
			c0.849,0.123,1.693,0.245,2.532,0.366c1.656,0.148,3.202,0.404,4.79,0.422c1.569,0.097,3.085,0.058,4.533,0.058
			c0.722-0.046,1.424-0.092,2.103-0.136c0.342-0.017,0.678-0.034,1.008-0.051c0.327-0.039,0.648-0.077,0.964-0.114
			c1.261-0.148,2.429-0.265,3.452-0.458c1.025-0.173,1.937-0.288,2.668-0.46c1.478-0.295,2.341-0.44,2.341-0.44
			s-0.775,0.383-2.165,1.011c-0.69,0.33-1.556,0.655-2.562,1.002c-0.503,0.171-1.033,0.386-1.607,0.552
			c-0.579,0.155-1.188,0.318-1.823,0.489c-1.267,0.38-2.687,0.575-4.183,0.836c-1.506,0.156-3.104,0.377-4.764,0.353
			c-0.828,0.024-1.674,0.035-2.539-0.022c-0.854-0.043-1.761-0.057-2.598-0.17c-0.841-0.104-1.688-0.209-2.539-0.313
			c-0.854-0.131-1.709-0.262-2.565-0.394c-1.68-0.311-3.377-0.581-5.057-0.825c-0.419-0.064-0.836-0.128-1.251-0.192l-0.619-0.107
			l-0.155-0.026c0.05,0.004-0.07-0.005-0.097-0.007l-0.293-0.021c-0.781-0.044-1.553-0.145-2.317-0.149
			c-0.768,0.02-1.523,0.039-2.263,0.058c-0.745,0.073-1.473,0.145-2.181,0.215c-1.414,0.235-2.769,0.438-4.014,0.724
			c-1.248,0.25-2.394,0.555-3.418,0.772c-1.021,0.257-1.92,0.452-2.659,0.617C673.853,12.487,672.997,12.644,672.997,12.644z"/>
	</g>
	<g>
		<path d="M679.73,6.261c0,0,0.571-0.33,1.589-0.85c0.51-0.258,1.125-0.583,1.842-0.918c0.729-0.327,1.531-0.737,2.467-1.074
			c0.916-0.38,1.951-0.72,3.07-1.021c0.571-0.125,1.158-0.253,1.758-0.384c0.611-0.096,1.246-0.145,1.889-0.217
			c0.646-0.049,1.311-0.011,1.982-0.011l0.252,0.003c0.064,0.004,0.035-0.005,0.176,0.009l0.117,0.012l0.469,0.05l0.943,0.112
			c1.263,0.136,2.544,0.322,3.833,0.538l1.892,0.321c0.637,0.096,1.271,0.192,1.899,0.287c1.234,0.131,2.368,0.304,3.552,0.342
			c1.166,0.094,2.294,0.084,3.374,0.104c0.539-0.024,1.062-0.049,1.569-0.072c0.512-0.002,1.004-0.031,1.476-0.087
			c0.944-0.09,1.822-0.15,2.594-0.271c0.772-0.108,1.462-0.168,2.016-0.278c1.118-0.185,1.779-0.26,1.779-0.26
			s-0.569,0.321-1.604,0.83c-0.513,0.268-1.156,0.538-1.91,0.82c-0.376,0.14-0.772,0.314-1.203,0.452
			c-0.435,0.128-0.892,0.262-1.369,0.402c-0.952,0.31-2.022,0.481-3.153,0.694c-1.138,0.137-2.347,0.323-3.604,0.326
			c-0.628,0.033-1.269,0.04-1.928-0.002c-0.647-0.032-1.344-0.04-1.973-0.117c-0.632-0.074-1.269-0.148-1.907-0.223
			c-0.642-0.1-1.286-0.201-1.93-0.302c-1.257-0.229-2.531-0.423-3.791-0.626l-0.938-0.153l-0.465-0.082l-0.116-0.021
			c0.063,0.006-0.044-0.003-0.058-0.004l-0.215-0.017c-0.574-0.034-1.141-0.11-1.704-0.127c-0.568,0.004-1.125,0.008-1.672,0.012
			c-0.553,0.044-1.094,0.087-1.62,0.13c-1.053,0.158-2.067,0.284-3.005,0.475c-0.937,0.167-1.805,0.369-2.58,0.509
			c-0.773,0.173-1.457,0.294-2.018,0.399C680.384,6.178,679.73,6.261,679.73,6.261z"/>
	</g>
	<g>
		<path d="M679.73,17.577c0,0,0.571-0.33,1.589-0.85c0.51-0.259,1.125-0.583,1.842-0.919c0.729-0.327,1.531-0.737,2.467-1.074
			c0.916-0.38,1.951-0.72,3.07-1.021c0.571-0.124,1.159-0.252,1.759-0.383c0.61-0.097,1.245-0.146,1.889-0.217
			c0.646-0.05,1.311-0.011,1.982-0.011l0.252,0.004c0.064,0.004,0.036-0.006,0.175,0.009l0.117,0.013l0.469,0.05l0.943,0.111
			c1.263,0.136,2.545,0.321,3.833,0.538l1.892,0.321c0.637,0.097,1.271,0.192,1.899,0.287c1.234,0.131,2.368,0.304,3.552,0.342
			c1.166,0.094,2.294,0.085,3.374,0.104c0.539-0.024,1.062-0.049,1.569-0.072c0.512-0.003,1.004-0.031,1.476-0.087
			c0.944-0.09,1.822-0.15,2.594-0.271c0.772-0.108,1.462-0.169,2.016-0.278c1.118-0.185,1.779-0.26,1.779-0.26
			s-0.569,0.321-1.604,0.83c-0.513,0.268-1.156,0.537-1.91,0.82c-0.376,0.14-0.772,0.313-1.203,0.452
			c-0.435,0.128-0.892,0.262-1.369,0.401c-0.952,0.311-2.022,0.481-3.153,0.695c-1.138,0.137-2.347,0.322-3.604,0.325
			c-0.628,0.032-1.269,0.039-1.928-0.002c-0.647-0.032-1.344-0.039-1.973-0.116c-0.632-0.074-1.269-0.148-1.907-0.224
			c-0.642-0.101-1.285-0.201-1.929-0.302c-1.257-0.229-2.531-0.423-3.791-0.626l-0.938-0.153l-0.465-0.082l-0.116-0.021
			c0.062,0.007-0.044-0.003-0.059-0.003l-0.215-0.017c-0.574-0.035-1.141-0.111-1.704-0.128c-0.567,0.004-1.125,0.007-1.671,0.011
			c-0.553,0.044-1.094,0.088-1.62,0.13c-1.053,0.158-2.067,0.283-3.005,0.476c-0.937,0.166-1.805,0.369-2.58,0.509
			c-0.773,0.173-1.457,0.294-2.018,0.399C680.384,17.493,679.73,17.577,679.73,17.577z"/>
	</g>
	<g>
		<path d="M740,11.5c0,0,10.156-0.105,27.93-0.29c8.887-0.074,19.678-0.163,32.056-0.265c12.378-0.085,26.343-0.181,41.577-0.286
			c15.234-0.077,31.738-0.16,49.194-0.249c17.456-0.066,35.864-0.137,54.907-0.209c38.086-0.064,78.711-0.132,119.336-0.199
			c40.625,0.067,81.25,0.134,119.336,0.197c19.043,0.072,37.451,0.141,54.907,0.207c17.456,0.089,33.96,0.172,49.194,0.25
			c15.234,0.104,29.199,0.201,41.577,0.286c12.378,0.103,23.169,0.192,32.056,0.267C1379.844,11.394,1390,11.5,1390,11.5
			s-10.156,0.106-27.93,0.292c-8.887,0.074-19.678,0.164-32.056,0.267c-12.378,0.085-26.343,0.181-41.577,0.285
			c-15.234,0.078-31.738,0.162-49.194,0.25c-17.456,0.066-35.864,0.136-54.907,0.207c-38.086,0.063-78.711,0.131-119.336,0.197
			c-40.625-0.067-81.25-0.136-119.336-0.199c-19.043-0.072-37.451-0.143-54.907-0.21c-17.456-0.088-33.96-0.171-49.194-0.248
			c-15.234-0.104-29.199-0.2-41.577-0.285c-12.378-0.103-23.169-0.191-32.056-0.266C750.156,11.605,740,11.5,740,11.5z"/>
	</g>
	<g>
		<path d="M10,11.5c0,0,10.156-0.105,27.93-0.29c8.887-0.074,19.678-0.163,32.056-0.265c12.378-0.085,26.343-0.181,41.577-0.286
			c15.234-0.077,31.738-0.16,49.194-0.249c17.456-0.066,35.864-0.137,54.907-0.209c38.086-0.064,78.711-0.132,119.336-0.199
			c40.625,0.067,81.25,0.134,119.336,0.197c19.043,0.072,37.451,0.141,54.907,0.207c17.456,0.089,33.96,0.172,49.194,0.25
			c15.234,0.104,29.199,0.201,41.577,0.286c12.378,0.103,23.169,0.192,32.056,0.267C649.844,11.394,660,11.5,660,11.5
			s-10.156,0.106-27.93,0.292c-8.887,0.074-19.678,0.164-32.056,0.267c-12.378,0.085-26.343,0.181-41.577,0.285
			c-15.234,0.078-31.738,0.162-49.194,0.25c-17.456,0.066-35.864,0.136-54.907,0.207C416.25,12.864,375.625,12.932,335,12.998
			c-40.625-0.067-81.25-0.136-119.336-0.199c-19.043-0.072-37.451-0.143-54.907-0.21c-17.456-0.088-33.96-0.171-49.194-0.248
			c-15.234-0.104-29.199-0.2-41.577-0.285c-12.378-0.103-23.169-0.191-32.056-0.266C20.156,11.605,10,11.5,10,11.5z"/>
	</g>
</g>
</svg>
