<?xml version="1.0" encoding="utf-8"?>
<!-- Generator: Adobe Illustrator 16.0.0, SVG Export Plug-In . SVG Version: 6.00 Build 0)  -->
<!DOCTYPE svg PUBLIC "-//W3C//DTD SVG 1.1//EN" "http://www.w3.org/Graphics/SVG/1.1/DTD/svg11.dtd">
<svg version="1.1" xmlns="http://www.w3.org/2000/svg" xmlns:xlink="http://www.w3.org/1999/xlink" x="0px" y="0px" width="1400px"
	 height="20px" viewBox="0 0 1400 20" enable-background="new 0 0 1400 20" xml:space="preserve">
<g id="Ebene_2" display="none">
	<rect display="inline" width="1400" height="20"/>
</g>
<g id="Ebene_1">
	<g>
		<path d="M685.416,11.738c0,0,0.414-0.229,1.148-0.597c0.368-0.182,0.812-0.41,1.33-0.647c0.526-0.23,1.104-0.52,1.778-0.757
			c0.659-0.269,1.403-0.507,2.206-0.72c0.41-0.087,0.831-0.177,1.262-0.269c0.438-0.069,0.892-0.097,1.353-0.145
			c0.905-0.033,1.946-0.021,2.815,0.143c0.906,0.127,1.826,0.257,2.747,0.386l1.348,0.219c0.46,0.054,0.918,0.107,1.372,0.161
			c0.9,0.066,1.825,0.321,2.631,0.267c0.824,0.001,1.626,0.043,2.396,0.078c0.769-0.062,1.504-0.124,2.188-0.164
			c0.685-0.042,1.319-0.072,1.866-0.195c0.551-0.1,1.04-0.168,1.444-0.229c0.81-0.116,1.285-0.167,1.285-0.167
			s-0.417,0.209-1.169,0.547c-0.378,0.166-0.837,0.374-1.374,0.59c-0.27,0.103-0.549,0.247-0.86,0.334
			c-0.314,0.079-0.646,0.162-0.991,0.249c-0.693,0.17-1.448,0.369-2.261,0.521c-0.828,0.071-1.711,0.151-2.628,0.192
			c-0.463,0.035-0.928,0.053-1.366,0.003c-0.448-0.025-0.901-0.062-1.356-0.106c-0.455-0.042-0.914-0.084-1.376-0.126l-1.405-0.192
			c-0.917-0.153-1.835-0.306-2.738-0.456c-0.433-0.057-0.942-0.187-1.296-0.21c-0.415-0.027-0.826-0.084-1.233-0.089
			c-0.41,0.006-0.813,0.013-1.208,0.02c-0.398,0.034-0.789,0.067-1.169,0.1c-0.759,0.118-1.489,0.213-2.163,0.356
			c-1.347,0.268-2.494,0.528-3.299,0.682C685.883,11.669,685.416,11.738,685.416,11.738z"/>
	</g>
	<g>
		<path d="M689.053,8.291c0,0,0.304-0.191,0.846-0.495c0.543-0.3,1.311-0.732,2.309-1.145c0.493-0.217,1.053-0.415,1.662-0.586
			c0.312-0.073,0.631-0.147,0.958-0.223c0.333-0.06,0.682-0.084,1.034-0.125c0.688-0.034,1.503-0.029,2.149,0.084
			c0.68,0.094,1.371,0.189,2.062,0.285l1.006,0.16c0.345,0.043,0.688,0.086,1.029,0.128c0.672,0.059,1.375,0.259,1.963,0.225
			c0.607,0.007,1.199,0.053,1.77,0.092c0.571-0.035,1.12-0.065,1.633-0.078c0.513-0.017,0.989-0.021,1.402-0.098
			c0.415-0.061,0.786-0.094,1.093-0.126c0.615-0.059,0.979-0.077,0.979-0.077s-0.306,0.176-0.863,0.458
			c-0.279,0.138-0.621,0.311-1.021,0.488c-0.395,0.206-0.863,0.356-1.389,0.486c-0.521,0.144-1.091,0.31-1.706,0.436
			c-0.629,0.066-1.302,0.142-2.002,0.178c-0.724,0.078-1.359-0.012-2.056-0.053c-0.342-0.028-0.687-0.057-1.033-0.086l-1.062-0.149
			c-0.688-0.116-1.376-0.232-2.054-0.347c-0.319-0.046-0.717-0.387-0.959-0.407C696.498,7.292,696.198,7,695.898,7
			c-0.302,0-0.599,0-0.889,0c-0.295,0-0.584,0.273-0.866,0.291c-0.564,0.076-1.111,0.249-1.618,0.341
			c-1.013,0.171-1.887,0.392-2.5,0.48C689.41,8.2,689.053,8.291,689.053,8.291z"/>
	</g>
	<g>
		<path d="M689.053,14.403c0,0,0.304-0.191,0.846-0.495c0.543-0.3,1.311-0.732,2.309-1.145c0.493-0.217,1.053-0.414,1.662-0.586
			c0.312-0.072,0.631-0.147,0.958-0.224c0.333-0.06,0.681-0.083,1.034-0.124c0.689-0.033,1.503-0.028,2.149,0.084
			c0.68,0.094,1.371,0.189,2.062,0.284l1.006,0.159c0.345,0.044,0.688,0.087,1.029,0.129c0.672,0.059,1.375,0.259,1.963,0.226
			c0.607,0.007,1.199,0.053,1.77,0.092c0.571-0.034,1.12-0.064,1.633-0.078c0.512-0.017,0.989-0.021,1.402-0.098
			c0.415-0.061,0.786-0.094,1.093-0.126c0.615-0.059,0.979-0.077,0.979-0.077s-0.306,0.177-0.863,0.458
			c-0.28,0.138-0.621,0.311-1.022,0.487c-0.394,0.205-0.862,0.355-1.388,0.486c-0.522,0.144-1.091,0.31-1.706,0.436
			c-0.629,0.066-1.302,0.142-2.002,0.178c-0.724,0.078-1.359-0.012-2.056-0.053c-0.342-0.029-0.688-0.058-1.033-0.087l-1.061-0.148
			c-0.688-0.116-1.377-0.232-2.055-0.347c-0.319-0.046-0.717,0.058-0.96,0.038c-0.304-0.025-0.604,0.127-0.903,0.127
			c-0.302,0-0.598,0-0.889,0c-0.295,0-0.584-0.171-0.866-0.153c-0.564,0.076-1.111,0.027-1.618,0.118
			c-1.013,0.172-1.887,0.281-2.501,0.37C689.41,14.423,689.053,14.403,689.053,14.403z"/>
	</g>
	<g>
		<path d="M721.5,11.5c0,0,10.445-0.105,28.725-0.29c9.14-0.074,20.238-0.163,32.968-0.265c12.73-0.085,27.093-0.181,42.761-0.286
			c15.668-0.077,32.642-0.16,50.595-0.249c17.952-0.066,36.885-0.137,56.47-0.209c39.17-0.064,80.951-0.132,122.732-0.199
			c41.781,0.067,83.562,0.134,122.732,0.197c19.585,0.072,38.518,0.141,56.47,0.207c17.953,0.089,34.927,0.172,50.595,0.25
			c15.668,0.104,30.03,0.201,42.761,0.286c12.729,0.103,23.828,0.192,32.968,0.267C1379.555,11.394,1390,11.5,1390,11.5
			s-10.445,0.106-28.725,0.292c-9.14,0.074-20.238,0.164-32.968,0.267c-12.73,0.085-27.093,0.181-42.761,0.285
			c-15.668,0.078-32.642,0.162-50.595,0.25c-17.952,0.066-36.885,0.136-56.47,0.207c-39.17,0.063-80.951,0.131-122.732,0.197
			c-41.781-0.067-83.562-0.136-122.732-0.199c-19.585-0.072-38.518-0.143-56.47-0.21c-17.953-0.088-34.927-0.171-50.595-0.248
			c-15.668-0.104-30.03-0.2-42.761-0.285c-12.729-0.103-23.828-0.191-32.968-0.266C731.945,11.605,721.5,11.5,721.5,11.5z"/>
	</g>
	<g>
		<path d="M10,11.5c0,0,10.422-0.105,28.66-0.29c9.119-0.074,20.192-0.163,32.894-0.265c12.701-0.085,27.031-0.181,42.664-0.286
			c15.633-0.077,32.568-0.16,50.48-0.249c17.913-0.066,36.802-0.137,56.342-0.209c39.082-0.064,80.769-0.132,122.455-0.199
			c41.687,0.067,83.374,0.134,122.455,0.197c19.541,0.072,38.43,0.141,56.342,0.207c17.912,0.089,34.847,0.172,50.48,0.25
			c15.632,0.104,29.962,0.201,42.664,0.286c12.702,0.103,23.774,0.192,32.894,0.267c18.238,0.186,28.66,0.292,28.66,0.292
			s-10.422,0.106-28.66,0.292c-9.119,0.074-20.192,0.164-32.894,0.267c-12.701,0.085-27.031,0.181-42.664,0.285
			c-15.633,0.078-32.568,0.162-50.48,0.25c-17.913,0.066-36.802,0.136-56.342,0.207c-39.082,0.063-80.769,0.131-122.455,0.197
			c-41.687-0.067-83.374-0.136-122.455-0.199c-19.541-0.072-38.43-0.143-56.342-0.21c-17.912-0.088-34.847-0.171-50.48-0.248
			c-15.632-0.104-29.962-0.2-42.664-0.285c-12.702-0.103-23.774-0.191-32.894-0.266C20.422,11.605,10,11.5,10,11.5z"/>
	</g>
</g>
</svg>
